<?xml version="1.0" standalone="no"?><!DOCTYPE svg PUBLIC "-//W3C//DTD SVG 1.1//EN" "http://www.w3.org/Graphics/SVG/1.1/DTD/svg11.dtd"><svg t="1612790429070" class="icon" viewBox="0 0 1024 1024" version="1.1" xmlns="http://www.w3.org/2000/svg" p-id="9502" xmlns:xlink="http://www.w3.org/1999/xlink" width="200" height="200"><defs><style type="text/css"></style></defs><path d="M512.252018 266.581333a161.166222 161.166222 0 1 0 0 322.332445 161.166222 161.166222 0 0 0 0-322.332445z m0 386.844445c-173.681778 0-273.066667 60.643556-288.199111 175.217778a419.157333 419.157333 0 0 0 576.284444 0c-15.018667-114.574222-114.403556-175.217778-288.085333-175.217778z m0 354.588444A483.555556 483.555556 0 0 1 166.936462 185.856 480.654222 480.654222 0 0 1 502.182684 40.903111H512.252018a483.555556 483.555556 0 0 1 345.201778 822.158222 480.711111 480.711111 0 0 1-335.075556 144.952889H512.252018z" p-id="9503"></path></svg>