<?xml version="1.0" standalone="no"?><!DOCTYPE svg PUBLIC "-//W3C//DTD SVG 1.1//EN" "http://www.w3.org/Graphics/SVG/1.1/DTD/svg11.dtd"><svg t="1613731945192" class="icon" viewBox="0 0 1024 1024" version="1.1" xmlns="http://www.w3.org/2000/svg" p-id="2222" xmlns:xlink="http://www.w3.org/1999/xlink" width="200" height="200"><defs><style type="text/css"></style></defs><path d="M512 960A448 448 0 1 0 512 64a448 448 0 0 0 0 896z m0 64A512 512 0 1 1 512 0a512 512 0 0 1 0 1024z" p-id="2223"></path><path d="M460.544 768h103.68l0.256-390.912H460.8L460.544 768zM512 335.616a61.056 61.056 0 0 0 43.008-16.128 56.704 56.704 0 0 0 16.896-41.472 58.496 58.496 0 0 0-16.896-42.24A62.4 62.4 0 0 0 512 219.648a56.704 56.704 0 0 0-41.472 16.896c-12.288 10.752-17.664 24.576-17.664 41.472s5.376 30.72 17.664 41.472A56.128 56.128 0 0 0 512 335.616z" p-id="2224"></path></svg>