<?xml version="1.0" standalone="no"?><!DOCTYPE svg PUBLIC "-//W3C//DTD SVG 1.1//EN" "http://www.w3.org/Graphics/SVG/1.1/DTD/svg11.dtd"><svg t="1606232361626" class="icon" viewBox="0 0 1024 1024" version="1.1" xmlns="http://www.w3.org/2000/svg" p-id="4532" xmlns:xlink="http://www.w3.org/1999/xlink" width="200" height="200"><defs><style type="text/css"></style></defs><path d="M960 362.7V288h-74.7v-74.7c0-41.3-33.4-74.7-74.7-74.7H736V64h-74.7v74.7h-112V64h-74.7v74.7h-112V64H288v74.7h-74.7c-41.3 0-74.7 33.4-74.7 74.7V288H64v74.7h74.7v112H64v74.7h74.7v112H64V736h74.7v74.7c0 41.3 33.4 74.7 74.7 74.7H288V960h74.7v-74.7h112V960h74.7v-74.7h112V960H736v-74.7h74.7c41.3 0 74.7-33.4 74.7-74.7V736H960v-74.7h-74.7v-112H960v-74.7h-74.7v-112c0 0.1 74.7 0.1 74.7 0.1z m-149.3 448H213.3V213.3h597.3v597.4zM325.3 736h373.3c20.6 0 37.3-16.7 37.3-37.3V325.3c0-20.6-16.7-37.3-37.3-37.3H325.3c-20.6 0-37.3 16.7-37.3 37.3v373.3c0 20.7 16.7 37.4 37.3 37.4z" fill="#337ab7" p-id="4533"></path></svg>